<svg viewBox="0 0 40 40" fill="none" xmlns="http://www.w3.org/2000/svg">
  <!-- Hexagon background -->
  <path d="M20 2L36 11V29L20 38L4 29V11L20 2Z" fill="#E6F2F2"/>
  <path d="M20 2L36 11V29L20 38L4 29V11L20 2Z" stroke="#008080" stroke-width="1.5" stroke-opacity="0.3"/>
  <!-- Stylized S -->
  <path d="M26 14H17C14.7909 14 13 15.7909 13 18C13 20.2091 14.7909 22 17 22H23C25.2091 22 27 23.7909 27 26C27 28.2091 25.2091 30 23 30H14" stroke="#008080" stroke-width="3.5" stroke-linecap="round" stroke-linejoin="round"/>
  <!-- Sync Arrow Heads -->
  <path d="M22 10L27 14L22 18" stroke="#008080" stroke-width="3.5" stroke-linecap="round" stroke-linejoin="round"/>
  <path d="M18 34L13 30L18 26" stroke="#008080" stroke-width="3.5" stroke-linecap="round" stroke-linejoin="round"/>
</svg>
